<svg width="134" height="20" fill="none" xmlns="http://www.w3.org/2000/svg"><path d="M15.078 1.514v1.719l-1.523.293v12.207h-2.842L4.97 6.163l-.059.01v7.558l1.524.293v1.709H.546v-1.71l1.515-.292V3.526L.547 3.233V1.514h4.365l5.742 9.57.059-.01V3.527l-1.524-.293V1.514H15.078zm6.045 14.424c-1.523 0-2.74-.488-3.652-1.465-.912-.976-1.367-2.217-1.367-3.72v-.391c0-1.57.43-2.862 1.289-3.877.866-1.016 2.024-1.52 3.476-1.514 1.426 0 2.533.43 3.32 1.29.788.859 1.182 2.02 1.182 3.486v1.552h-6.308l-.02.059c.052.697.283 1.27.693 1.719.417.449.98.674 1.69.674.631 0 1.155-.062 1.572-.186.417-.13.872-.332 1.367-.605l.772 1.757c-.436.345-1.003.635-1.7.87-.69.234-1.461.351-2.314.351zm-.254-8.77c-.527 0-.944.202-1.25.606-.306.404-.495.934-.566 1.592l.029.049h3.496V9.16c0-.606-.143-1.088-.43-1.446-.28-.364-.706-.547-1.279-.547zm20.918-.283-1.064.137-2.207 8.71h-2.383L34.17 9.445h-.059l-1.963 6.289h-2.373L27.56 7.022l-1.065-.137V5.167h4.785v1.718l-1.123.215.996 4.834h.059l1.973-6.767h1.914l1.992 6.787h.058l.987-4.844-1.133-.225V5.167h4.785v1.718zm9.6 1.914h-1.914l-.303-1.318a2.487 2.487 0 0 0-.742-.39 2.899 2.899 0 0 0-.977-.157c-.501 0-.898.114-1.191.342-.293.221-.44.501-.44.84 0 .319.14.586.42.8.28.209.84.394 1.68.557 1.308.26 2.279.645 2.91 1.152.632.502.947 1.195.947 2.08 0 .951-.41 1.73-1.23 2.335-.814.599-1.888.898-3.223.898a6.885 6.885 0 0 1-2.246-.352 5.813 5.813 0 0 1-1.806-1.025l-.03-2.373h1.992l.391 1.377c.17.143.4.25.693.322.293.065.6.098.918.098.58 0 1.02-.104 1.319-.313.306-.208.459-.491.459-.85 0-.312-.153-.582-.46-.81-.305-.228-.869-.43-1.689-.605-1.243-.254-2.184-.629-2.822-1.123-.632-.502-.947-1.182-.947-2.041 0-.886.364-1.647 1.094-2.285.729-.645 1.767-.967 3.115-.967.82 0 1.595.11 2.324.332.736.221 1.312.504 1.728.85l.03 2.626zm10.781.684h-4.815v4.062h4.59l.127-1.699h2.168v3.887h-11.25v-1.71l1.514-.292V3.526l-1.514-.293V1.514H64.22v3.897H62.03l-.127-1.7h-4.55v3.575h4.814v2.197zm3.36 4.54.986-.155 2.87-3.477-2.773-3.34-.986-.166V5.167h4.756v1.65l-.967.117 1.602 2.031 1.572-2.03-.986-.118v-1.65h4.775v1.718l-.957.166-2.715 3.34 2.861 3.477.996.156v1.709h-4.834v-1.64l.967-.118-1.64-2.129-1.67 2.139.85.107v1.64h-4.708v-1.708zm11.728-7.138V5.167h4.14l.137 1.23a3.388 3.388 0 0 1 1.123-1.055c.436-.247.944-.37 1.524-.37 1.308 0 2.324.51 3.047 1.532.722 1.023 1.084 2.367 1.084 4.034v.205c0 1.562-.362 2.819-1.084 3.77-.723.95-1.732 1.425-3.028 1.425-.553 0-1.045-.1-1.474-.303a3.077 3.077 0 0 1-1.104-.908v3.057l1.377.293v1.718h-5.596v-1.718l1.377-.293V7.178l-1.523-.293zm8.203 3.653c0-.997-.166-1.804-.498-2.422-.332-.619-.84-.928-1.523-.928-.43 0-.798.088-1.104.264-.3.175-.537.426-.713.752v4.628c.176.3.413.528.713.684.306.156.68.235 1.123.235.69 0 1.195-.27 1.514-.811.325-.54.488-1.273.488-2.197v-.205zm3.623-8.32V.497h4.375v13.233l1.377.293v1.709h-5.606v-1.71l1.378-.292V2.511l-1.524-.294zm6.494 8.134c0-1.575.44-2.865 1.319-3.867.885-1.01 2.106-1.514 3.662-1.514 1.562 0 2.783.501 3.662 1.504.885 1.003 1.328 2.295 1.328 3.877v.205c0 1.589-.443 2.884-1.328 3.887-.879.996-2.093 1.494-3.643 1.494-1.569 0-2.796-.498-3.681-1.494-.88-1.003-1.319-2.298-1.319-3.887v-.205zm2.852.205c0 .964.169 1.738.508 2.324.338.58.885.87 1.64.87.736 0 1.273-.293 1.612-.88.345-.585.517-1.357.517-2.314v-.205c0-.937-.172-1.702-.517-2.295-.346-.592-.889-.889-1.631-.889-.743 0-1.283.297-1.621.89-.339.592-.508 1.357-.508 2.294v.205zm8.574 3.467 1.367-.293V7.178l-1.514-.293V5.167h4.17l.127 1.542c.248-.546.567-.973.957-1.279a2.14 2.14 0 0 1 1.358-.459c.15 0 .306.013.469.04.169.019.309.045.419.077l-.302 2.598-1.172-.03c-.417 0-.762.082-1.035.245a1.573 1.573 0 0 0-.625.693v5.137l1.367.293v1.709h-5.586v-1.71zm13.066 1.914c-1.523 0-2.741-.488-3.652-1.465-.911-.976-1.367-2.217-1.367-3.72v-.391c0-1.57.43-2.862 1.289-3.877.866-1.016 2.025-1.52 3.476-1.514 1.426 0 2.533.43 3.321 1.29.788.859 1.181 2.02 1.181 3.486v1.552h-6.308l-.02.059c.052.697.283 1.27.694 1.719.416.449.979.674 1.689.674.632 0 1.156-.062 1.572-.186.417-.13.873-.332 1.368-.605l.771 1.757c-.436.345-1.003.635-1.699.87-.69.234-1.462.351-2.315.351zm-.254-8.77c-.527 0-.944.202-1.25.606-.306.404-.494.934-.566 1.592l.029.049h3.496V9.16c0-.606-.143-1.088-.429-1.446-.28-.364-.707-.547-1.28-.547zm6.075 6.856 1.367-.293V7.178l-1.514-.293V5.167h4.17l.127 1.542c.247-.546.566-.973.957-1.279a2.14 2.14 0 0 1 1.358-.459c.149 0 .306.013.468.04.17.019.31.045.42.077l-.303 2.598-1.171-.03c-.417 0-.762.082-1.036.245a1.585 1.585 0 0 0-.625.693v5.137l1.368.293v1.709h-5.586v-1.71z" fill="#fff"/></svg>